<?xml version="1.0" encoding="utf-8"?>
<!-- Generator: Adobe Illustrator 19.0.0, SVG Export Plug-In . SVG Version: 6.00 Build 0)  -->
<svg version="1.1" id="Layer_1" xmlns="http://www.w3.org/2000/svg" xmlns:xlink="http://www.w3.org/1999/xlink" x="0px" y="0px"
	 viewBox="0 0 960 560" style="enable-background:new 0 0 960 560;" xml:space="preserve">
<g id="XMLID_7_">
	<path id="XMLID_17_" d="M255.8,325.9c-3.9,2.7-5.6,7.3-4.3,11.7c6.7,22,26.6,87,29.5,87c0,0,76.9,30.3,184.3,30.8
		c6.3,0,12.6-4.8,12.6-10.8v-36.9c0-5.1-3.7-9.5-9-10.6c-21-4.1-76.7-19.7-116-30.4c-9.5-2.6-11.3-14.6-2.9-19.5
		c26.2-15.4,75.9-40.9,119.7-52.8c4.9-1.3,8.2-5.5,8.2-10.3v-51.4c0-7.6-8-12.8-15.5-10C427.1,235.7,335,271.3,255.8,325.9z"/>
	<path id="XMLID_18_" d="M465.3,456C465.3,456,465.3,456,465.3,456c-104.7-0.5-181.5-29.6-184.5-30.8c-1.1-0.2-4.9-4.5-30-87.4
		c-1.4-4.6,0.4-9.6,4.5-12.4c74-50.9,161.4-86.6,206.8-103.3c3.8-1.4,7.8-0.9,11.1,1.2c3.3,2.1,5.2,5.6,5.2,9.4v51.4
		c0,5.1-3.6,9.6-8.7,10.9c-41,11.1-90,35.3-119.6,52.7c-3.7,2.2-5.6,6-5,10c0.6,4,3.5,7.2,7.7,8.4c6.1,1.7,12.6,3.5,19.4,5.3
		c37,10.1,78.9,21.6,96.6,25.1c5.5,1.1,9.5,5.8,9.5,11.1v36.9c0,2.7-1.2,5.4-3.5,7.5C472.5,454.5,468.8,456,465.3,456z M281.1,424
		l0.1,0c0.8,0.3,78.1,30.3,184.1,30.7c3.2,0,6.5-1.3,8.9-3.5c2-1.9,3.1-4.2,3.1-6.6v-36.9c0-4.8-3.6-9-8.5-10
		c-17.8-3.5-59.7-15-96.7-25.1c-6.7-1.8-13.3-3.6-19.4-5.3c-4.6-1.3-7.9-4.9-8.6-9.4c-0.7-4.5,1.5-8.8,5.6-11.2
		c29.6-17.4,78.7-41.7,119.9-52.8c4.5-1.2,7.7-5.2,7.7-9.8v-51.4c0-3.4-1.7-6.5-4.7-8.4c-3-1.9-6.6-2.3-9.9-1.1
		c-45.4,16.7-132.7,52.3-206.5,103.1l0,0c-3.7,2.5-5.3,7-4,11C267.7,388.9,278.8,422,281.1,424z"/>
</g>
<g id="XMLID_6_">
	<path id="XMLID_13_" d="M708.7,343.8c0,0-10.6,68.6-14.1,68.6c0,0-79.3,41.6-187,42.9c-6.4,0.1-11.6-4.8-11.6-10.8v-36
		c0-5,3.6-9.3,8.7-10.5c20.7-4.8,71.5-22.2,111-33.6c9.5-2.7,11-14.8,2.5-19.6c-26.2-14.7-70.4-38.9-113.8-50.5
		c-4.9-1.3-8.4-5.6-8.3-10.5l0.9-51.3c0.1-7.6,8.2-12.6,15.6-9.8C562.3,241.8,712.7,303.4,708.7,343.8z"/>
	<path id="XMLID_14_" d="M507.4,456c-3.2,0-6.2-1.2-8.5-3.3c-2.3-2.2-3.6-5-3.6-8.1v-36c0-5.3,3.8-9.8,9.2-11.1
		c11.6-2.7,33.2-9.5,56-16.7c18.5-5.8,37.7-11.9,55-16.9c4.1-1.2,7-4.5,7.6-8.5c0.5-4-1.5-7.9-5.2-9.9
		c-20.4-11.4-68-38.2-113.6-50.5c-5.2-1.4-8.8-6-8.8-11.1l0.9-51.3c0.1-3.7,2.1-7.2,5.4-9.3c3.3-2.1,7.5-2.5,11.1-1.1
		c33.5,12.8,200.6,78.6,196.5,121.5l0,0c0,0.2-2.7,17.4-5.8,34.3c-5.9,32.9-7.8,34.7-8.9,34.8c-3.8,1.9-82.6,41.7-187.2,42.9
		C507.5,456,507.5,456,507.4,456z M508.4,222.7c-2.1,0-4.1,0.6-5.9,1.7c-3,1.9-4.7,4.9-4.8,8.3l-0.9,51.3c-0.1,4.6,3.1,8.6,7.8,9.9
		c45.8,12.3,93.5,39.1,113.9,50.6c4.2,2.3,6.4,6.6,5.8,11.1c-0.6,4.6-3.8,8.2-8.5,9.5c-17.3,5-36.5,11-55,16.9
		c-22.9,7.2-44.4,14-56.1,16.7c-4.8,1.1-8.2,5.2-8.2,9.9v36c0,2.7,1.1,5.3,3.2,7.2c2.1,1.9,4.8,3,7.8,3
		c106.3-1.3,185.9-42.4,186.7-42.8l0.2-0.1c2.6-2.3,9.7-42.9,13.6-68.1c4-42-162.3-107.5-195.7-120.2
		C511.1,223,509.7,222.7,508.4,222.7z"/>
</g>
<g id="XMLID_8_">
	<path id="XMLID_9_" d="M284.2,437.9c154.8,42.4,272.3,44.8,410.9-14.5c5.8-2.5,12.6,0.7,15.3,6.2c5.2,11-7.8,55.2-20.4,62.7
		c-7,4.2-16.3,0.7-18.4-7v0c-1.8-6.6-9.2-10.4-16-8.1c-1.8,0.6-3.7,1.5-5.5,2.6c-4.2,2.6-6.2,7.4-5.2,12l2.4,10.9
		c1.1,4.9-1.3,10-5.9,12.5c-6.6,3.5-14.5,6.4-30.3,10.1c-7.1,1.7-9.5-4.6-10.4-11.5l-0.7-2.6c-0.9-6.5-7.4-12.4-14.3-11.1
		c-2.4,0.4-10.4,1.1-13.5,2.2c-4.9,1.7-10.6,8.7-10.5,13.6l0.2,5.3c0.2,6.4-7.7,11.8-14.4,12l-28.3,0.9c-6.8,0.2-12.4-4.8-12.6-11.2
		l-0.1-3.4c-0.2-5.3-4.1-10-9.7-11c-4.4-0.8-10.2-1.1-17.3,0.5c-5.5,1.2-9.6,5.8-9.6,11.1l-0.1,3.3c-0.1,6.5-5.9,11.7-12.7,11.4
		c-9.5-0.4-22.4-1.1-31.6-2.5c-6.3-0.9-10.8-6.3-10.4-12.4l0.3-3.9c0.4-5-2.6-10.9-7.4-12.8c-5.2-2.1-11.2-2.9-18.8-2.5
		c-5.8,0.3-11.8,4.4-12.6,9.8l-0.4,2.5c-1,6.2-7.1,10.6-13.7,9.8c-10-1.2-24.2-3.4-33.6-6.7c-5.7-2-9.1-7.6-7.8-13.3l2.2-10
		c1-4.3-0.7-8.8-4.3-11.4c-4.2-3.1-10.9-5.7-20.4-2.9c-4,1.2-7,4.2-8,8l-1.7,5.9c-2,6.9-10,10.5-16.8,7.6
		c-9.7-4.1-21.6-9.9-23.7-14.3c-2.8-5.6,13.7-28.3,21.9-42.3C272.8,438.6,278.7,436.4,284.2,437.9z"/>
	<path id="XMLID_10_" d="M457.4,535.4c-0.2,0-0.4,0-0.5,0c-9.3-0.4-22.4-1.1-31.7-2.5c-6.6-1-11.4-6.7-10.9-13l0.3-3.9
		c0.4-5-2.8-10.5-7.1-12.2c-5.2-2.1-11.1-2.9-18.5-2.5c-5.9,0.3-11.3,4.5-12,9.3l-0.4,2.5c-1.1,6.6-7.4,11.1-14.4,10.3
		c-10.2-1.2-24.3-3.4-33.7-6.7c-6.1-2.1-9.6-8-8.2-14l2.2-10c0.9-4.1-0.7-8.3-4.1-10.8c-3.8-2.8-10.4-5.6-19.8-2.8
		c-3.7,1.1-6.6,4-7.6,7.6l-1.7,5.9c-1,3.5-3.5,6.3-6.9,7.9c-3.4,1.5-7.4,1.6-10.8,0.1c-14.2-6-22.3-10.9-24.1-14.6
		c-2.2-4.5,6.3-18,14.6-31c2.7-4.3,5.3-8.3,7.3-11.9c2.9-5,9.1-7.4,14.9-5.8c165.3,45.3,280.4,41.2,410.5-14.5
		c2.7-1.2,5.8-1.2,8.7-0.2c3.3,1.2,6,3.6,7.4,6.7c5.3,11.3-7.5,55.6-20.7,63.5c-3.5,2.1-7.8,2.5-11.6,1c-3.9-1.5-6.7-4.5-7.7-8.3
		c-0.8-3-2.9-5.5-5.8-7c-2.9-1.4-6.3-1.7-9.4-0.6c-1.9,0.7-3.7,1.5-5.4,2.5c-3.9,2.4-5.9,7-4.9,11.4l2.4,10.9
		c1.2,5.2-1.3,10.5-6.2,13.1c-6.1,3.2-13.6,6.2-30.5,10.2c-2.4,0.6-4.5,0.3-6.2-0.8c-2.6-1.7-4.2-5.3-5.1-11.2l-0.7-2.5
		c-0.5-3.5-2.6-6.8-5.6-8.8c-2.5-1.7-5.3-2.3-8-1.9c-0.7,0.1-2,0.3-3.4,0.5c-3.3,0.4-7.9,1-10.1,1.8c-4.5,1.6-10.2,8.2-10.1,13.1
		l0.2,5.3c0.1,3.2-1.6,6.3-4.8,8.8c-2.9,2.3-6.7,3.7-10.2,3.8l-28.3,0.9c-3.4,0.1-6.7-1.1-9.2-3.3c-2.5-2.2-4-5.3-4.1-8.5l-0.1-3.4
		c-0.2-5.1-4-9.5-9.2-10.4c-5.3-1-11-0.8-17.1,0.5c-5.3,1.1-9.1,5.5-9.1,10.6l-0.1,3.3c-0.1,3.3-1.5,6.4-4,8.7
		C463.8,534.3,460.7,535.4,457.4,535.4z M392.4,500.1c6,0,11,0.9,15.6,2.7c5.4,2.1,8.2,8.5,7.8,13.4l-0.3,3.9
		c-0.5,5.8,3.8,10.8,9.8,11.7c9.2,1.4,22.3,2.1,31.6,2.5c3.2,0.1,6.1-0.9,8.4-3c2.3-2.1,3.6-4.8,3.6-7.8l0.1-3.3
		c0.1-5.7,4.3-10.5,10.2-11.7c6.2-1.3,12.1-1.5,17.6-0.5c5.7,1.1,10,5.9,10.2,11.6l0.1,3.4c0.1,2.9,1.4,5.7,3.7,7.7
		c2.3,2,5.2,3.1,8.3,3l28.3-0.9c3.2-0.1,6.7-1.4,9.4-3.5c2.9-2.3,4.5-5,4.4-7.8l-0.2-5.3c-0.2-5.5,5.9-12.5,10.9-14.2
		c2.3-0.8,7-1.4,10.4-1.8c1.4-0.2,2.6-0.3,3.3-0.5c3-0.5,6.2,0.2,9,2.1c3.3,2.3,5.5,5.8,6.1,9.6l0.7,2.5c0.8,5.6,2.3,9,4.5,10.5
		c1.4,0.9,3.1,1.1,5.1,0.6c16.8-3.9,24.2-6.8,30.2-10c4.4-2.3,6.6-7.1,5.6-11.8l-2.4-10.9c-1.1-4.9,1.1-10,5.4-12.7
		c1.7-1.1,3.6-1.9,5.6-2.6c3.4-1.2,7.2-0.9,10.4,0.7c3.2,1.6,5.6,4.4,6.5,7.8c0.9,3.4,3.5,6.2,6.9,7.5c3.5,1.3,7.3,1,10.5-0.9
		c12.6-7.5,25.2-51.4,20.2-61.9c-1.3-2.8-3.8-5-6.7-6c-2.6-0.9-5.3-0.9-7.7,0.1c-130.4,55.9-245.8,60-411.4,14.6l0,0
		c-5.3-1.5-10.8,0.7-13.4,5.2c-2.1,3.6-4.6,7.6-7.4,11.9c-7.3,11.5-16.4,25.9-14.5,29.8c1.6,3.3,9.9,8.3,23.4,14
		c3.1,1.3,6.7,1.3,9.7-0.1c3.1-1.4,5.3-4,6.2-7.1l1.7-5.9c1.1-4,4.4-7.2,8.5-8.4c9.9-2.9,16.9,0.1,21,3c3.8,2.8,5.6,7.5,4.5,12
		l-2.2,10c-1.2,5.4,1.9,10.7,7.4,12.6c9.3,3.2,23.3,5.4,33.4,6.6c6.3,0.8,12-3.3,13-9.2l0.4-2.5c0.9-5.4,6.8-10,13.2-10.4
		C390.2,500.1,391.3,500.1,392.4,500.1z"/>
</g>
<g id="XMLID_1_">
	<path id="XMLID_2_" d="M200.3,123.5c17.9-14.8,82.3-67.8,127.8-100.7c6.9-5,17-0.5,17.3,7.7c1,26.7,4.3,86.4,14.4,211
		c0.3,3.8-1.6,7.4-5,9.4c-16.3,9.6-64.7,38.3-95.9,59.1c-6.1,4.1-14.6,1.2-16.6-5.6c-9-30.7-30.5-105.9-45.4-171.1
		C196,129.7,197.3,125.9,200.3,123.5z"/>
	<path id="XMLID_3_" d="M252.7,312.5c-1.3,0-2.6-0.2-3.9-0.6c-3.5-1.2-6.2-3.9-7.2-7.3c-8.7-29.6-30.4-105.6-45.4-171.2
		c-0.9-3.8,0.5-7.8,3.6-10.4l0,0c18.5-15.3,82.5-67.9,127.8-100.7c3.5-2.5,7.9-2.9,11.8-1.2c3.9,1.8,6.4,5.3,6.5,9.4
		c1.1,29.3,4.5,89.6,14.4,211c0.3,4-1.7,7.9-5.3,10c-14.5,8.5-64.4,38.1-95.8,59C257.2,311.8,255,312.5,252.7,312.5z M200.7,123.9
		L200.7,123.9c-2.8,2.3-4,5.8-3.2,9.2c15,65.5,36.8,141.5,45.4,171.1c0.9,3,3.2,5.4,6.4,6.5c3.1,1.1,6.5,0.6,9.2-1.2
		c30.6-20.4,77.3-48.1,95.9-59.1c3.2-1.9,5-5.3,4.7-8.9c-9.9-121.4-13.3-181.8-14.4-211.1c-0.1-3.6-2.3-6.8-5.8-8.3
		c-3.5-1.6-7.4-1.2-10.5,1.1C283.2,56,219.2,108.6,200.7,123.9L200.7,123.9z"/>
</g>
</svg>
