<?xml version="1.0" encoding="utf-8"?>
<!-- Generator: Adobe Illustrator 19.0.0, SVG Export Plug-In . SVG Version: 6.00 Build 0)  -->
<svg version="1.1" xmlns="http://www.w3.org/2000/svg" xmlns:xlink="http://www.w3.org/1999/xlink" x="0px" y="0px"
	 viewBox="0 0 960 560" style="enable-background:new 0 0 960 560;" xml:space="preserve">
<style type="text/css">
	.st0{stroke:#000000;stroke-miterlimit:10;}
</style>
<g id="Dots">
	<g id="XMLID_35_">
		<path id="XMLID_80_" class="st0" d="M216.6,328.1c-2.6,0-4.8-0.9-6.7-2.8c-1.8-1.9-2.8-4.1-2.8-6.7c0-2.6,0.9-4.9,2.8-6.8
			c1.8-1.9,4.1-2.8,6.7-2.8c2.7,0,4.9,0.9,6.8,2.8c1.9,1.9,2.8,4.1,2.8,6.8c0,2.6-0.9,4.8-2.8,6.7S219.2,328.1,216.6,328.1z"/>
	</g>
	<g id="XMLID_36_">
		<path id="XMLID_78_" class="st0" d="M682.3,324.5c-2.6,0-4.8-0.9-6.7-2.8c-1.8-1.9-2.8-4.1-2.8-6.7c0-2.6,0.9-4.9,2.8-6.8
			c1.8-1.9,4.1-2.8,6.7-2.8c2.7,0,4.9,0.9,6.8,2.8c1.9,1.9,2.8,4.2,2.8,6.8c0,2.6-0.9,4.8-2.8,6.7S685,324.5,682.3,324.5z"/>
	</g>
</g>
<g id="Logo">
	<g id="XMLID_43_">
		<path id="XMLID_73_" d="M339.3,294.8c-2,1.5-2.9,4-2.2,6.4c3.4,12,13.7,47.3,15.2,47.3c0,0,39.6,16.5,94.8,16.7
			c3.2,0,6.5-2.6,6.5-5.9v-20c0-2.8-1.9-5.2-4.7-5.7c-10.8-2.2-39.5-10.7-59.7-16.5c-4.9-1.4-5.8-7.9-1.5-10.6
			c13.5-8.4,39.1-22.2,61.6-28.7c2.5-0.7,4.2-3,4.2-5.6v-27.9c0-4.1-4.1-6.9-8-5.5C427.4,245.8,380,265.2,339.3,294.8z"/>
		<path id="XMLID_74_" d="M447.1,365.6C447.1,365.6,447,365.6,447.1,365.6c-53.6-0.2-93-15.9-94.9-16.7c-0.7-0.1-2.7-2.7-15.5-47.6
			c-0.7-2.6,0.2-5.3,2.4-6.9l0,0c38.1-27.7,83-47,106.4-56.1c2-0.8,4.2-0.5,5.9,0.7c1.7,1.2,2.8,3.1,2.8,5.2v27.9
			c0,2.8-1.9,5.3-4.6,6.1c-21.1,6-46.3,19.2-61.5,28.6c-1.8,1.1-2.8,3.2-2.5,5.3c0.3,2.1,1.8,3.8,3.8,4.4c3.1,0.9,6.4,1.9,9.9,2.9
			c19,5.5,40.6,11.8,49.7,13.7c2.9,0.6,5.1,3.2,5.1,6.2v20c0,1.5-0.7,3-1.8,4.2C450.8,364.8,448.9,365.6,447.1,365.6z M352.4,347.9
			L352.4,347.9c0.4,0.2,40.2,16.4,94.6,16.7c0,0,0,0,0,0c1.6,0,3.3-0.7,4.4-1.9c1-1,1.6-2.2,1.6-3.5v-20c0-2.5-1.8-4.7-4.3-5.2
			c-9.1-1.9-30.8-8.2-49.8-13.7c-3.4-1-6.8-2-9.9-2.9c-2.5-0.7-4.2-2.7-4.5-5.2c-0.4-2.5,0.8-4.9,2.9-6.3
			c15.2-9.5,40.5-22.7,61.7-28.7c2.3-0.6,3.9-2.8,3.9-5.1v-27.9c0-1.8-0.8-3.4-2.3-4.4c-1.5-1-3.3-1.2-5-0.6
			c-23.4,9.1-68.2,28.4-106.2,56l0,0c-1.8,1.3-2.6,3.7-2,5.8C345.5,328.7,351.2,346.6,352.4,347.9z"/>
	</g>
	<g id="XMLID_42_">
		<path id="XMLID_69_" d="M572.2,305.4c0,0-5.5,37.3-7.3,37.3c0,0-40.8,22.6-96.2,23.3c-3.3,0-5.9-2.6-5.9-5.9v-19.5
			c0-2.7,1.8-5,4.5-5.7c10.6-2.6,36.8-12,57.1-18.2c4.9-1.5,5.7-8,1.3-10.6c-13.5-8-36.2-21.1-58.5-27.4c-2.5-0.7-4.3-3-4.3-5.7
			l0.5-27.9c0.1-4.1,4.2-6.9,8-5.3C496.9,250,574.2,283.5,572.2,305.4z"/>
		<path id="XMLID_70_" d="M468.7,366.5c-1.7,0-3.3-0.7-4.5-1.8c-1.2-1.2-1.9-2.8-1.9-4.5v-19.5c0-2.9,2-5.5,4.9-6.2
			c6-1.4,17-5.1,28.8-9c9.5-3.2,19.4-6.5,28.3-9.2c2.1-0.6,3.5-2.3,3.8-4.5c0.3-2.1-0.7-4.1-2.6-5.2c-10.5-6.2-35-20.7-58.4-27.4
			c-2.8-0.8-4.7-3.3-4.6-6.2l0.5-27.9c0-2.1,1.1-4,2.8-5.2c1.7-1.2,3.9-1.4,5.9-0.6c17.3,6.9,103.3,42.7,101.1,66.2l0,0
			c0,0.1-1.4,9.4-3,18.6c-3,17.7-4,19-4.7,19C562.7,344.5,522.3,365.8,468.7,366.5C468.8,366.5,468.7,366.5,468.7,366.5z
			 M469.2,239.8c-1,0-2,0.3-2.9,0.9c-1.5,1-2.4,2.6-2.4,4.4l-0.5,27.9c0,2.4,1.6,4.5,3.9,5.2c23.5,6.7,48.1,21.3,58.6,27.5
			c2.2,1.3,3.4,3.7,3.1,6.2c-0.3,2.5-2,4.6-4.5,5.3c-8.9,2.7-18.8,6-28.3,9.2c-11.7,3.9-22.8,7.6-28.8,9.1c-2.4,0.6-4.1,2.7-4.1,5.2
			v19.5c0,1.4,0.6,2.8,1.6,3.8c1,1,2.4,1.6,3.9,1.6c54.6-0.7,95.5-23,95.9-23.3l0.1-0.1c1.4-1.7,5-23.4,6.9-36.8
			c2.1-22.7-83.4-58.2-100.5-65.1C470.5,240,469.9,239.8,469.2,239.8z"/>
	</g>
	<g id="XMLID_41_">
		<path id="XMLID_65_" d="M353.9,355.6c79.6,23,140,24.4,211.3-7.9c3-1.4,6.5,0.4,7.8,3.4c2.7,6-4,30-10.5,34.1
			c-3.6,2.3-8.4,0.4-9.5-3.8l0,0c-0.9-3.6-4.7-5.6-8.2-4.4c-0.9,0.3-1.9,0.8-2.8,1.4c-2.2,1.4-3.2,4-2.7,6.5l1.2,5.9
			c0.6,2.7-0.7,5.4-3,6.8c-3.4,1.9-7.4,3.5-15.6,5.5c-3.7,0.9-4.9-2.5-5.4-6.3l-0.4-1.4c-0.5-3.6-3.8-6.7-7.3-6.1
			c-1.2,0.2-5.3,0.6-7,1.2c-2.5,0.9-5.5,4.7-5.4,7.4l0.1,2.9c0.1,3.5-3.9,6.4-7.4,6.5l-14.5,0.5c-3.5,0.1-6.4-2.6-6.5-6.1l-0.1-1.8
			c-0.1-2.9-2.1-5.4-5-6c-2.2-0.4-5.2-0.6-8.9,0.3c-2.9,0.6-4.9,3.1-5,6.1l0,1.8c-0.1,3.5-3,6.3-6.6,6.2c-4.9-0.2-11.5-0.6-16.3-1.3
			c-3.3-0.5-5.6-3.4-5.3-6.7l0.2-2.1c0.2-2.7-1.3-5.9-3.8-6.9c-2.7-1.1-5.8-1.6-9.7-1.4c-3,0.2-6.1,2.4-6.5,5.3l-0.2,1.3
			c-0.5,3.4-3.6,5.7-7,5.3c-5.2-0.7-12.5-1.8-17.3-3.6c-2.9-1.1-4.7-4.2-4-7.2l1.1-5.4c0.5-2.3-0.3-4.8-2.2-6.2
			c-2.2-1.7-5.6-3.1-10.5-1.6c-2,0.6-3.6,2.3-4.1,4.4l-0.9,3.2c-1,3.7-5.1,5.7-8.7,4.1c-5-2.2-11.1-5.4-12.2-7.7
			c-1.4-3.1,7.1-15.4,11.3-23C348,356,351.1,354.8,353.9,355.6z"/>
		<path id="XMLID_66_" d="M443,408.8c-0.1,0-0.2,0-0.3,0c-4.8-0.2-11.5-0.6-16.3-1.3c-3.5-0.6-6-3.7-5.7-7.2l0.2-2.1
			c0.2-2.7-1.4-5.5-3.5-6.5c-2.7-1.1-5.7-1.5-9.4-1.3c-2.6,0.1-5.6,2.1-6,4.9l-0.2,1.3c-0.6,3.6-4,6.2-7.6,5.7
			c-5.3-0.7-12.5-1.9-17.4-3.7c-3.2-1.2-5-4.5-4.3-7.8l1.1-5.4c0.5-2.2-0.3-4.4-2-5.7c-1.9-1.5-5.3-3-10-1.5c-1.8,0.6-3.3,2.1-3.8,4
			l-0.9,3.2c-0.5,1.9-1.8,3.5-3.6,4.4c-1.8,0.9-3.9,0.9-5.7,0.1c-7.3-3.3-11.5-6-12.5-8c-1.1-2.4,2.3-8.3,7.5-17
			c1.4-2.3,2.7-4.5,3.8-6.4c1.5-2.8,4.8-4.1,7.9-3.2l0,0c84.9,24.6,144.1,22.4,211-7.9c1.4-0.6,3.1-0.7,4.6-0.1
			c1.7,0.7,3.2,2,3.9,3.7c2.8,6.2-3.9,30.4-10.7,34.7c-1.9,1.2-4.1,1.4-6.1,0.6c-2-0.8-3.5-2.5-4.1-4.6c-0.4-1.6-1.5-2.9-2.9-3.7
			c-1.4-0.8-3.2-0.9-4.7-0.3c-1,0.4-1.9,0.8-2.7,1.3c-1.9,1.3-2.9,3.7-2.4,6l1.2,5.9c0.6,2.9-0.7,5.9-3.3,7.3
			c-3.1,1.8-7,3.4-15.7,5.5c-1.3,0.3-2.4,0.2-3.3-0.5c-1.4-1-2.3-2.9-2.7-6.2l-0.3-1.4c-0.2-1.9-1.3-3.6-2.8-4.7
			c-1.2-0.9-2.6-1.2-4-1c-0.4,0.1-1,0.2-1.7,0.3c-1.7,0.2-4,0.5-5.1,0.9c-2.4,0.9-5.1,4.6-5.1,6.9l0.1,2.9c0.1,1.8-0.9,3.5-2.6,4.9
			c-1.5,1.3-3.5,2-5.4,2.1l-14.5,0.5c-1.8,0-3.5-0.6-4.9-1.8c-1.3-1.2-2.1-2.9-2.1-4.7l-0.1-1.8c-0.1-2.7-2-5-4.6-5.5
			c-2.7-0.5-5.6-0.4-8.7,0.3c-2.6,0.6-4.5,2.9-4.6,5.6l0,1.8c0,1.9-0.8,3.6-2.1,4.8C446.4,408.1,444.7,408.8,443,408.8z
			 M409.6,389.2c3.1,0,5.7,0.5,8.1,1.5c2.9,1.2,4.3,4.7,4.1,7.4l-0.2,2.1c-0.2,3,1.9,5.7,4.9,6.2c4.7,0.7,11.4,1.1,16.2,1.3
			c1.6,0.1,3.1-0.5,4.2-1.6c1.1-1.1,1.8-2.5,1.8-4.1l0-1.8c0.1-3.1,2.3-5.8,5.4-6.5c3.2-0.7,6.3-0.8,9.1-0.3c3,0.6,5.3,3.3,5.4,6.4
			l0.1,1.8c0,1.5,0.7,3,1.8,4s2.6,1.6,4.2,1.6l14.5-0.5c1.6,0,3.4-0.7,4.8-1.9c1.5-1.2,2.2-2.6,2.2-4.1l-0.1-2.9
			c-0.1-3,3.1-6.9,5.7-7.9c1.2-0.4,3.6-0.8,5.4-1c0.7-0.1,1.3-0.2,1.7-0.2c1.6-0.3,3.3,0.1,4.7,1.2c1.7,1.3,2.9,3.2,3.2,5.3l0.3,1.4
			c0.4,3,1.1,4.8,2.3,5.6c0.7,0.5,1.5,0.6,2.5,0.3c8.6-2.1,12.4-3.7,15.5-5.4c2.2-1.2,3.3-3.7,2.8-6.2l-1.2-5.9
			c-0.6-2.7,0.6-5.6,2.9-7.1c0.9-0.6,1.9-1.1,2.9-1.4c1.8-0.6,3.8-0.5,5.5,0.4c1.7,0.9,2.9,2.5,3.4,4.3c0.5,1.8,1.7,3.3,3.5,4
			c1.7,0.7,3.6,0.5,5.2-0.5c6.4-4,12.9-27.7,10.3-33.4c-0.7-1.5-1.9-2.6-3.4-3.2c-1.3-0.5-2.6-0.5-3.8,0.1
			c-36.6,16.6-71,24.8-108.5,24.8c-31.2,0-64.5-5.7-103.2-16.9l0,0c-2.6-0.8-5.4,0.4-6.7,2.8c-1.1,1.9-2.4,4.1-3.8,6.5
			c-3.7,6.2-8.4,14-7.5,16c0.8,1.8,5.1,4.4,12,7.5c1.6,0.7,3.3,0.7,4.9-0.1c1.5-0.7,2.7-2.1,3.1-3.7l0.9-3.2c0.6-2.2,2.3-4,4.5-4.7
			c5.2-1.6,8.8,0,10.9,1.7c2,1.5,2.9,4.2,2.4,6.7l-1.1,5.4c-0.6,2.8,1,5.6,3.7,6.7c4.8,1.8,12,2.9,17.2,3.6c3.1,0.4,6-1.8,6.5-4.9
			l0.2-1.3c0.5-3,3.6-5.6,7-5.8C408.4,389.3,409,389.2,409.6,389.2z"/>
	</g>
	<g id="XMLID_40_">
		<path id="XMLID_1_" d="M310.7,184.8c9.2-8,42.3-36.8,65.7-54.7c3.6-2.7,8.7-0.3,8.9,4.2c0.5,14.5,2.2,46.9,7.4,114.6
			c0.2,2.1-0.8,4-2.6,5.1c-8.4,5.2-33.3,20.8-49.3,32.1c-3.1,2.2-7.5,0.6-8.5-3.1c-4.6-16.7-15.7-57.5-23.4-92.9
			C308.5,188.2,309.2,186.2,310.7,184.8z"/>
		<path id="XMLID_32_" d="M337.7,287.7c-0.7,0-1.4-0.1-2.1-0.4c-1.9-0.7-3.3-2.2-3.8-4.1c-4.5-16.1-15.7-57.4-23.4-93
			c-0.5-2.1,0.3-4.4,1.9-5.8l0,0c9.5-8.3,42.4-36.9,65.7-54.7c1.8-1.4,4.2-1.6,6.2-0.7c2.1,1,3.4,2.9,3.5,5.2
			c0.6,15.9,2.3,48.7,7.4,114.6c0.2,2.3-0.9,4.4-2.8,5.6c-9.6,5.9-33.5,21-49.3,32.1C340.1,287.3,338.9,287.7,337.7,287.7z
			 M311.1,185.2c-1.4,1.2-2,3.1-1.6,4.8c7.7,35.6,18.9,76.8,23.4,92.9c0.4,1.6,1.6,2.8,3.2,3.4c1.6,0.6,3.2,0.3,4.6-0.6
			c15.8-11.1,39.7-26.1,49.3-32.1c1.6-1,2.5-2.8,2.4-4.7c-5.1-66-6.8-98.8-7.4-114.7c-0.1-1.9-1.1-3.6-2.9-4.4
			c-1.7-0.8-3.7-0.6-5.2,0.6C353.5,148.3,320.6,176.9,311.1,185.2L311.1,185.2z"/>
	</g>
</g>
<g id="Top_Cirlce">
	<g id="XMLID_31_">
		<path id="XMLID_26_" class="st0" d="M253.3,268l-67.2-7.4c-0.9-0.1-1.3-0.6-1.2-1.6l2.3-20.9c0.5-4.1,1.9-7.1,4.2-9
			c2.4-1.9,5.6-2.7,9.8-2.2l16.1,1.8c1.6,0.2,2.9,0.8,3.9,2c1,1.2,1.6,2.5,1.7,4.2l0.2,0c0.4-1.6,1.3-2.8,2.5-3.7
			c1.3-0.9,2.7-1.3,4.3-1.1l16.1,1.8c4.1,0.5,7.1,1.9,9,4.3c1.9,2.4,2.6,5.6,2.2,9.8l-2.3,20.9c0,0.4-0.2,0.8-0.5,1
			C254.1,268,253.7,268.1,253.3,268z M215.3,251.7l0.9-8c0.1-1.1-0.1-2-0.6-2.7c-0.5-0.7-1.3-1.1-2.4-1.2l-10.8-1.2
			c-2.3-0.3-3.6,0.8-3.9,3.1l-0.9,8L215.3,251.7z M244.5,255l0.9-8c0.3-2.3-0.8-3.6-3.1-3.9l-10.7-1.2c-2.3-0.3-3.6,0.8-3.9,3.1
			l-0.9,8L244.5,255z"/>
		<path id="XMLID_30_" class="st0" d="M251.9,208.6l-33.5-14c-3.8-1.6-6.3-3.8-7.5-6.6c-1.2-2.8-0.9-6.1,0.7-10l3.8-9.1
			c1.6-3.8,3.8-6.3,6.6-7.5c2.8-1.2,6.1-0.9,10,0.7l33.5,14c3.8,1.6,6.3,3.8,7.5,6.6c1.2,2.8,0.9,6.1-0.7,10l-3.8,9.1
			c-1.6,3.8-3.8,6.3-6.6,7.5C259.1,210.5,255.8,210.2,251.9,208.6z M254.4,197.2c2.2,0.9,3.7,0.3,4.6-1.9l2.2-5.2
			c0.9-2.2,0.3-3.7-1.9-4.6l-29.4-12.3c-2.2-0.9-3.7-0.3-4.6,1.9l-2.2,5.2c-0.9,2.2-0.3,3.7,1.9,4.6L254.4,197.2z"/>
		<path id="XMLID_37_" class="st0" d="M277.7,155.7l-28.2-22.8c-3.2-2.6-5-5.4-5.3-8.5c-0.3-3,0.8-6.1,3.4-9.4l6.2-7.7
			c2.6-3.2,5.4-5,8.5-5.3c3-0.3,6.1,0.8,9.4,3.4l28.2,22.8c3.2,2.6,5,5.4,5.3,8.5c0.3,3-0.8,6.1-3.4,9.4l-6.2,7.7
			c-2.6,3.2-5.4,5-8.5,5.3S281,158.3,277.7,155.7z M283.3,145.4c1.8,1.5,3.5,1.3,5-0.5l3.5-4.4c1.5-1.8,1.3-3.5-0.5-5l-24.8-20
			c-1.8-1.5-3.5-1.3-5,0.5l-3.5,4.4c-1.5,1.8-1.3,3.5,0.5,5L283.3,145.4z"/>
		<path id="XMLID_44_" class="st0" d="M288.5,74.5c-0.2-0.4-0.3-0.7-0.3-1.1c0.1-0.4,0.3-0.7,0.6-0.9l26.4-18.7
			c0.8-0.5,1.4-0.4,2,0.3l5.1,7.2c0.5,0.8,0.4,1.4-0.3,2l-8.3,5.9l28.1,39.6c0.5,0.8,0.4,1.4-0.3,2L334,116c-0.8,0.5-1.4,0.4-2-0.3
			l-28.1-39.6l-8.3,5.9c-0.4,0.2-0.7,0.3-1.1,0.3c-0.4-0.1-0.7-0.3-0.9-0.6L288.5,74.5z"/>
		<path id="XMLID_46_" class="st0" d="M363.5,83.1l-12.2-34.1c-1.4-3.9-1.4-7.2-0.1-10c1.3-2.8,3.9-4.8,7.8-6.2l9.3-3.3
			c3.9-1.4,7.2-1.4,9.9-0.1c2.8,1.3,4.9,3.9,6.2,7.8l3.2,8.9c0.1,0.4,0.1,0.8,0,1.1s-0.4,0.6-0.8,0.7l-7.8,2.8
			c-0.9,0.3-1.5,0-1.8-0.9l-2.4-6.8c-0.8-2.2-2.3-2.9-4.5-2.1l-5.3,1.9c-2.2,0.8-2.9,2.3-2.1,4.5l10.8,30.1c0.8,2.2,2.3,2.9,4.5,2.1
			l5.3-1.9c2.2-0.8,2.9-2.3,2.1-4.5l-2.5-7c-0.3-0.9,0-1.5,0.8-1.8l7.8-2.8c0.4-0.1,0.8-0.1,1.1,0s0.6,0.4,0.7,0.8l3.2,8.9
			c1.4,3.9,1.4,7.2,0.1,10c-1.3,2.8-3.9,4.8-7.8,6.2l-9.3,3.3c-3.9,1.4-7.2,1.5-10,0.2S364.9,87,363.5,83.1z"/>
		<path id="XMLID_48_" class="st0" d="M417.2,77.7l11.5-59.6c0.1-0.8,0.6-1.3,1.5-1.3l12.4-0.7c0.8,0,1.4,0.3,1.6,1.1l17.7,58
			c0.1,0.2,0.1,0.4,0.1,0.5c0,0.7-0.4,1-1.3,1.1l-8.6,0.5c-0.8,0-1.2-0.4-1.5-1.2l-3.3-10.9l-16.6,0.9l-2.1,11.2
			c-0.1,0.8-0.6,1.3-1.4,1.3l-8.7,0.5c-0.8,0-1.3-0.2-1.3-0.9C417.2,78.1,417.2,77.9,417.2,77.7z M432.6,55.8l11.7-0.6l-7.1-23.6
			L432.6,55.8z"/>
		<path id="XMLID_51_" class="st0" d="M478.5,76.4l15.5-56c0.3-1.1,1-1.5,2.2-1.2l11.2,3.1c1,0.3,1.5,0.9,1.5,2l-1.1,40.4l19.9-35.2
			c0.5-0.9,1.3-1.2,2.3-0.9l11.2,3.1c1.1,0.3,1.5,1,1.2,2.2l-15.5,56c-0.3,1.1-1,1.5-2.2,1.2l-7.8-2.2c-1.1-0.3-1.5-1-1.2-2.2
			l9.3-33.3l-0.6-0.2L507,84.6c-0.5,0.9-1.3,1.2-2.3,0.9l-5-1.4c-1-0.3-1.5-0.9-1.5-2l1.3-35.8l-0.6-0.2l-9.3,33.3
			c-0.3,1.1-1,1.5-2.2,1.2l-7.8-2.2C478.6,78.2,478.2,77.5,478.5,76.4z"/>
		<path id="XMLID_53_" class="st0" d="M544.5,99.7l32.8-48.8c0.2-0.4,0.5-0.6,0.9-0.6c0.4-0.1,0.7,0,1.1,0.3l17.5,11.8
			c3.4,2.3,5.5,5,6,7.9s-0.3,6.2-2.6,9.6l-9.6,14.3c-2.3,3.4-4.9,5.4-7.9,6c-3,0.6-6.2-0.3-9.7-2.5l-9.2-6.1l-9.8,14.6
			c-0.5,0.8-1.2,0.9-2,0.4l-7.1-4.9c-0.4-0.2-0.6-0.5-0.6-0.9C544.2,100.4,544.3,100,544.5,99.7z M570.2,82.1l7.3,4.8
			c1.9,1.3,3.6,1,4.9-0.9l7.2-10.7c1.3-1.9,1-3.6-1-4.9l-7.3-4.8L570.2,82.1z"/>
		<path id="XMLID_56_" class="st0" d="M589.1,133.1l45.1-37.7c0.3-0.3,0.7-0.4,1-0.4c0.4,0,0.7,0.2,0.9,0.5l20.8,24.8
			c0.6,0.7,0.5,1.4-0.2,2L650,128c-0.8,0.6-1.5,0.6-2.1-0.1l-14-16.7l-10.4,8.7l10.6,12.7c0.6,0.7,0.5,1.4-0.2,2.1l-6.7,5.6
			c-0.8,0.6-1.5,0.6-2.1-0.1l-10.6-12.7l-10,8.4l14,16.7c0.3,0.4,0.5,0.8,0.5,1c0,0.3-0.2,0.6-0.6,0.9l-6.8,5.7
			c-0.7,0.6-1.4,0.5-2-0.2l-20.8-24.8c-0.3-0.3-0.4-0.6-0.3-1C588.6,133.7,588.8,133.4,589.1,133.1z"/>
		<path id="XMLID_58_" class="st0" d="M622.1,176.9l53.7-23.8c0.4-0.2,0.8-0.2,1.1-0.1c0.3,0.1,0.6,0.4,0.8,0.8l8.6,19.3
			c1.7,3.8,2,7.1,0.9,9.9c-1.1,2.8-3.5,5.1-7.3,6.8l-16.2,7.2c-4.7,2.1-8.6,2-11.8-0.2l-15.4,11.8c-0.9,0.7-1.5,0.5-1.9-0.5
			l-3.5-7.9c-0.3-0.8-0.2-1.4,0.5-1.9l14.1-10.9l-3.2-7.2l-15.7,6.9c-0.4,0.2-0.8,0.2-1.1,0.1c-0.3-0.1-0.6-0.4-0.8-0.8l-3.5-7.9
			c-0.2-0.4-0.2-0.8-0.1-1.1C621.5,177.3,621.7,177.1,622.1,176.9z M652.8,175.8l3.5,8c1,2.1,2.5,2.7,4.6,1.8l12.1-5.4
			c2.1-1,2.7-2.5,1.8-4.6l-3.6-8L652.8,175.8z"/>
		<path id="XMLID_61_" class="st0" d="M653.1,227.4l5.7-0.7c0.9-0.1,1.5,0.3,1.6,1.2l1.2,8.8c0.1,0.9-0.3,1.5-1.2,1.6l-3.7,0.5
			c-2.3,0.3-3.3,1.6-3,4l0.6,4.7c0.3,2.3,1.6,3.3,4,3l8.8-1.2l4.1-21.8c0.3-1.7,1.3-2.6,2.9-2.8l15.1-2c4.1-0.5,7.3,0.1,9.8,2
			c2.4,1.9,3.9,4.8,4.4,8.9l1.3,9.8c0.5,4.1-0.1,7.4-2,9.8c-1.8,2.4-4.8,3.9-9,4.4l-5.8,0.8c-0.9,0.1-1.5-0.3-1.6-1.2l-1.2-8.8
			c-0.1-0.4,0-0.8,0.2-1.1c0.2-0.3,0.5-0.5,1-0.5l3.7-0.5c2.3-0.3,3.3-1.6,3-3.9l-0.6-4.8c-0.1-1.1-0.6-1.9-1.2-2.5
			c-0.7-0.5-1.6-0.7-2.7-0.6l-7.5,1l-4,22c-0.3,1.6-1.3,2.5-2.9,2.7l-16.4,2.2c-4.1,0.5-7.4-0.1-9.8-2c-2.4-1.8-3.9-4.8-4.4-8.9
			l-1.3-9.8c-0.5-4.1,0.1-7.3,2-9.7C646.1,229.4,649,228,653.1,227.4z"/>
	</g>
</g>
<g id="Bottom_Cirlce">
	<g id="XMLID_8_">
		<path id="XMLID_2_" class="st0" d="M213.5,386.4l39.7-21.3c3.7-2,6.9-2.5,9.9-1.6c2.9,0.9,5.4,3.2,7.3,6.8l4.7,8.7
			c1.9,3.6,2.5,6.9,1.6,9.8c-0.9,2.9-3.1,5.4-6.8,7.3l-8.4,4.5c-0.8,0.4-1.4,0.2-1.9-0.6l-4.2-7.8c-0.4-0.8-0.3-1.5,0.5-1.9l6.2-3.3
			c2.1-1.1,2.5-2.7,1.4-4.8l-2.2-4c-1.1-2.1-2.7-2.6-4.8-1.4l-35.3,19c-2.1,1.1-2.5,2.7-1.4,4.8l2.2,4c1.1,2.1,2.7,2.6,4.8,1.4
			l6.2-3.3c0.8-0.4,1.5-0.3,1.9,0.6l4.2,7.8c0.2,0.4,0.3,0.7,0.1,1.1c-0.1,0.3-0.3,0.6-0.7,0.8l-8.4,4.5c-3.6,2-6.9,2.5-9.9,1.6
			c-2.9-0.9-5.4-3.1-7.3-6.7l-4.7-8.7c-2-3.7-2.5-6.9-1.7-9.9C207.6,390.8,209.9,388.4,213.5,386.4z"/>
		<path id="XMLID_4_" class="st0" d="M248.8,443.3l26.5-24.8c3-2.8,6.1-4.2,9.1-4.1s6,1.7,8.8,4.7l6.7,7.2c2.8,3,4.2,6.1,4.1,9.1
			c-0.1,3-1.7,6-4.7,8.8l-26.5,24.8c-3,2.8-6.1,4.2-9.1,4.1c-3-0.1-6-1.7-8.8-4.7l-6.7-7.2c-2.8-3-4.2-6.1-4.1-9.1
			S245.8,446.2,248.8,443.3z M258.3,450.2c-1.7,1.6-1.8,3.3-0.2,5l3.8,4.1c1.6,1.7,3.3,1.8,5,0.2l23.3-21.7c1.7-1.6,1.8-3.3,0.2-5
			l-3.8-4.1c-1.6-1.7-3.3-1.8-5-0.2L258.3,450.2z"/>
		<path id="XMLID_10_" class="st0" d="M322.9,449.1c0.2-0.4,0.5-0.6,0.9-0.7c0.4-0.1,0.7,0,1.1,0.2l7.7,5c0.8,0.5,0.9,1.2,0.4,2
			l-26.3,40.9l14.6,9.4c0.8,0.5,0.9,1.2,0.4,1.9l-4.8,7.4c-0.5,0.8-1.2,0.9-2,0.4l-23.5-15.1c-0.8-0.5-0.9-1.2-0.4-2L322.9,449.1z"
			/>
		<path id="XMLID_12_" class="st0" d="M366.7,474.4c0.1-0.4,0.4-0.7,0.7-0.8c0.3-0.2,0.7-0.2,1.1,0l8.7,3c0.9,0.3,1.2,0.9,0.9,1.8
			l-15.8,46l16.5,5.7c0.9,0.3,1.2,0.9,0.9,1.8l-2.9,8.3c-0.3,0.9-0.9,1.2-1.8,0.9l-26.5-9.1c-0.9-0.3-1.2-0.9-0.9-1.8L366.7,474.4z"
			/>
		<path id="XMLID_14_" class="st0" d="M409.4,547.1l5-58.6c0-0.4,0.2-0.8,0.5-1c0.3-0.2,0.6-0.3,1-0.3l32.3,2.7
			c0.9,0.1,1.4,0.6,1.3,1.5l-0.7,8.8c-0.1,1-0.6,1.5-1.5,1.4l-21.7-1.8l-1.1,13.5l16.5,1.4c0.9,0.1,1.4,0.6,1.3,1.6l-0.7,8.7
			c-0.1,1-0.6,1.5-1.5,1.4l-16.5-1.4l-1.1,13l21.7,1.8c0.5,0,0.9,0.2,1.1,0.4c0.2,0.2,0.3,0.6,0.2,1.1l-0.7,8.8
			c-0.1,0.9-0.6,1.4-1.5,1.3l-32.3-2.7c-0.4,0-0.7-0.2-0.9-0.5C409.4,547.9,409.3,547.5,409.4,547.1z"/>
		<path id="XMLID_16_" class="st0" d="M477,537.5l-6.2-35.7c-0.7-4.1-0.2-7.4,1.6-9.9c1.8-2.5,4.7-4.1,8.8-4.8l9.7-1.7
			c4-0.7,7.3-0.2,9.8,1.6s4.1,4.7,4.8,8.7l1.6,9.4c0.1,0.4,0,0.8-0.2,1.1s-0.5,0.5-1,0.6l-8.2,1.4c-0.9,0.2-1.4-0.2-1.6-1.2
			l-1.2-7.1c-0.4-2.3-1.8-3.3-4.1-2.9l-5.6,1c-2.3,0.4-3.3,1.8-2.9,4.1l5.4,31.5c0.4,2.3,1.8,3.3,4.1,2.9l5.6-1
			c2.3-0.4,3.3-1.8,2.9-4.1l-1.3-7.4c-0.2-0.9,0.2-1.5,1.1-1.6l8.2-1.4c0.4-0.1,0.8,0,1.1,0.2s0.5,0.5,0.6,1l1.6,9.4
			c0.7,4.1,0.2,7.3-1.6,9.8c-1.8,2.5-4.7,4.1-8.7,4.8l-9.7,1.7c-4.1,0.7-7.4,0.2-9.9-1.6S477.7,541.6,477,537.5z"/>
		<path id="XMLID_18_" class="st0" d="M520.8,479.4c-0.2-0.4-0.2-0.8-0.1-1.1c0.1-0.3,0.4-0.6,0.8-0.8l29.5-13.3
			c0.9-0.4,1.5-0.2,1.9,0.7l3.6,8c0.4,0.9,0.2,1.5-0.7,1.9l-9.3,4.2l20,44.2c0.4,0.9,0.2,1.5-0.7,1.9l-8.3,3.8
			c-0.9,0.4-1.5,0.2-1.9-0.7l-20-44.2l-9.3,4.2c-0.4,0.2-0.8,0.2-1.1,0.1s-0.6-0.4-0.8-0.8L520.8,479.4z"/>
		<path id="XMLID_20_" class="st0" d="M568,454.9c-0.6-0.8-0.4-1.4,0.3-2l7.4-5.3c0.3-0.3,0.7-0.3,1.1-0.3s0.7,0.3,0.9,0.6
			l34.2,47.8c0.3,0.3,0.3,0.7,0.3,1.1c-0.1,0.4-0.3,0.7-0.6,0.9l-7.4,5.3c-0.8,0.6-1.4,0.4-2-0.3L568,454.9z"/>
		<path id="XMLID_22_" class="st0" d="M592.6,437.5c-0.1,0-0.2-0.1-0.3-0.3c-0.7-0.6-0.6-1.3,0-2l5.1-5.5c0.6-0.7,1.4-0.8,2.4-0.3
			l35.2,20.5l-23.4-33.3c-0.6-0.9-0.6-1.7,0.1-2.5l5.4-5.9c0.7-0.8,1.4-0.9,2.1-0.3c0.1,0.1,0.3,0.3,0.4,0.4l33.2,49.5
			c0.6,0.9,0.6,1.7-0.1,2.5l-5.6,6.1c-0.6,0.7-1.4,0.7-2.3,0.2L592.6,437.5z"/>
		<path id="XMLID_24_" class="st0" d="M681.2,420.4l-52-27.3c-0.4-0.2-0.6-0.5-0.7-0.8c-0.1-0.3-0.1-0.7,0.1-1l15.1-28.7
			c0.4-0.8,1.1-1,1.9-0.6l7.8,4.1c0.9,0.5,1.1,1.1,0.7,2l-10.1,19.3l12,6.3l7.7-14.6c0.4-0.8,1.1-1,2-0.6l7.7,4.1
			c0.9,0.5,1.1,1.1,0.7,2l-7.7,14.6l11.5,6.1l10.1-19.3c0.3-0.5,0.5-0.8,0.8-0.8c0.3-0.1,0.6,0,1.1,0.2l7.8,4.1
			c0.8,0.4,1,1.1,0.6,1.9L683,419.9c-0.2,0.4-0.5,0.6-0.8,0.7C681.9,420.6,681.6,420.6,681.2,420.4z"/>
	</g>
	<g id="XMLID_7_">
	</g>
	<g id="XMLID_6_">
	</g>
</g>
</svg>
